<?xml version="1.0" encoding="utf-8"?>
<!-- Generator: Adobe Adobe Illustrator 24.2.0, SVG Export Plug-In . SVG Version: 6.00 Build 0)  -->
<svg version="1.1" id="Layer_1" xmlns="http://www.w3.org/2000/svg" xmlns:xlink="http://www.w3.org/1999/xlink" x="0px" y="0px"
	 viewBox="0 0 1920 1080" style="enable-background:new 0 0 1920 1080;" xml:space="preserve">
<style type="text/css">
	.st0{fill:#98B37B;}
	.st1{fill:#77D4C7;}
</style>
<g>
	<path class="st0" d="M1240.82,763.41c-113.55,30.42-229.72,39.32-346.7,38.59c-83-0.51-165.61-8.29-247.07-24.29
		c-41.86-8.22-83.27-19.61-123.26-37.82c-13.62-8.22-27.26-15.11-38.87-24.51c-19.59-15.85-18.57-45.63,0.68-70.55
		c16.13-20.89,34.3-39.86,56.05-54.72c34.3-23.43,50.54-59.08,67.2-94.81c6.1-13.1,16.04-22.53,30.32-26.99
		c17.19-5.36,25-15.71,24.42-35.36c-1.45-48.96,11.41-63.9,59.8-74.36c22.4-4.84,40.92-10.2,41.85-40.25
		c0.66-21.2,25.31-31.03,57.89-29.38c15.1,0.76,34.83,5.65,40.68-13.26c11.32-36.58,35.85-42.21,68.6-36.77
		c33.06,5.49,60.23-8.6,85.91-27.63c23.11-17.13,50.39-22.77,78.41-24.75c20.71-1.47,41.5-1.87,62.26-2.6
		c2.25-0.08,4.98,0.9,6.59,1.44c2.16,0.73-2.29,4.13-3.45,6.3c-9.43,17.71-25.36,15.64-41.51,14.29
		c-25.17-2.1-50.04-0.83-73.99,8.58c-27.98,11-45.21,42.54-37.59,69.41c6.89,24.28,35.47,37.86,66.23,32.81
		c27.65-4.54,51.56-18.21,76.38-29.54c20.09-9.18,37.67-5.37,54.57,6.7c33.61,24,67.74,21.36,101.54,1.22
		c9.38-5.59,19.18-9.34,29.29-12.54c4.51-1.43,7.14-2.62,3.48-6.89c-17.31-20.16-29.8-44.97-52.69-59.72
		c-36.73-23.67-78.3-16.4-105.9,19.24c-29.73,38.4-67.44,60.56-115.82,65.61c-19.11,2-34.81-1.48-42.4-20.36
		c-6.18-15.38,6-40.68,21.93-50.08c20.41-12.05,43.32-14.35,64.91-9.16c33.99,8.16,47.31,0.71,66.4-22.69
		c0.89-1.09,5.49-11.14,5.98-12.12c6.59-13.26,16.1-25.58,27.7-25.94c61.28-1.87,105.82,27.93,138,78.49
		c4.9,7.7,9.92,15.33,15.15,22.81c1.22,1.75,3.5,2.76,5.29,4.12c0.48-2.48,1.4-4.98,1.31-7.44c-0.1-2.72-1-5.44-1.77-8.1
		c-1.91-6.62-10.25-14.53-5.13-19.19c5.5-5.01,13.56,3.07,20.27,5.81c12.3,5.03,24.24,10.97,39.2,17.86
		c-14.03-20.61-32.23-31.5-51.82-37.72c-33.49-10.65-52.66-41.98-84.21-55.02c-7.45-3.08,0.16-5.93,2.6-7.78
		c35.85-27.08,85.9-15.02,111.44,26.91c12.96,21.27,17.43,47.59,35.72,65.44c31.75,30.99,72.86,43.49,114.4,54.84
		c40.4,11.04,79.71,7.43,119.74-3.57c47.95-13.19,95.94,41.54,102.05,76.12c6.37,36.03,2.21,38.54-47.2,61.53
		c-59.7,27.77-119.05,30.06-180.38,7c-36.16-13.59-73.07-8.96-109.32,0.33c-65.67,16.83-126.55,7.66-182.99-30.61
		c-37.37-25.34-77.05-44.97-123.95-42.23c-28.49,1.66-55.14,10.85-80.92,22.59c-2.28,1.04-5.83,4.47-5.47,5.26
		c1.74,3.78,5.35,1.68,8.29,1.25c27.62-3.99,55.21-8.05,83.28-7.43c40.99,0.91,77.46,14.74,111.19,37.25
		c59.79,39.89,124.53,52.68,194.3,33.47c47.26-13.02,92.67-3.85,138.37,7.97c58.47,15.12,113.33,5.52,164.77-25.88
		c5.01-3.06,11.62-9.68,16.72-5.16c2.6,2.3,0.2,12.16-2.05,17.74c-10.36,25.67-31.36,40.63-55.43,51.41
		c-43.46,19.48-90.84,21.55-136.88,29.39c-53.61,9.13-107.34,17.54-161.02,26.31c-75.63,12.35-151.6,24.46-228.12,11.7
		c-65.04-10.85-119.68-43.05-164-92.18c-8.21-9.1-15.95-18.63-23.87-27.99c-1.43-1.69-2.32-5.06-5.21-2.99
		c-2.84,2.03,0.08,3.84,1.08,5.87c36.64,75.04,95.6,119.71,177.71,136.84c60.27,12.57,119.24,9.96,183.67-4.47
		c-57.55,28.49-96.04,77.96-154.81,94.9c-8.85,2.55-14.86-4.34-21.47-8.15c-39.14-22.61-80.27-39.88-123.86-52.42
		c-36.22-10.43-72.36-21.72-105.96-40.05c-22.31-12.17-47.48-7.47-71.69-6.1c-1.5,0.09-2.89,2.08-4.33,3.18
		c3.03,1.67,5.89,4.18,9.13,4.89c16.99,3.69,34.94,3.26,50.75,11.98c2.78,1.54,6.22,2.48,8.25,4.7c13.01,14.23,27.72,23.06,48.23,20
		c4.61-0.69,11.57,2.82,14.82,6.64c13.88,16.3,32.09,14.83,50.48,14.57c16.57-0.24,30.55,7.08,40.38,19.75
		c9.08,11.7,20.19,16.42,34.02,15.51c22.01-1.44,37.37,8.04,47.42,27.12c9.7,18.42,28.14,10.95,42.8,13.97
		c8.07,1.66,17.67,0.46,24.28,6.09c12.85,10.96,25.16,10.37,39.4,2.48 M778.64,589.81c-4.4,25.14,7.72,39.82,31.32,42.7
		c18.06,2.21,28,11.64,35.2,26.36c5.59,11.43,14.85,15.42,27.06,18.25c16.66,3.86,38.6-6.97,49.57,12.84
		c17.38,31.38,43.81,38.93,76.54,34.27c13.6-1.94,22.44,3.66,28.56,16.26c9.21,18.98,23.84,31.53,45.97,33.48
		c18.89,1.66,37.47-0.85,55.98-3.88c4.8-0.79,12.26-0.21,14.01-4.84c2.36-6.25-9.09-7.91-14.87-8.1
		c-17.58-0.56-35.18-0.26-52.77-0.37c-11.5-0.07-21.15-3.44-25.93-15.12c-14.66-35.81-21.78-39.11-60.45-33.65
		c-14.06,1.98-31.74,8.7-40.54-9.72c-17.45-36.51-22-39.42-61.84-33.3c-11.8,1.81-23.75,0.52-27.4-12.87
		c-6.92-25.38-23.49-35.13-48.51-34.88c-10.3,0.11-19.4-4.62-15.75-16.79c4.66-15.54-2.05-24.61-14.1-31.61
		c-8.81-5.12-16.33-11.38-21.17-20.35c-2.62-4.86-4.38-10.18-6.52-15.29c-6.42,7.14-0.87,14.41,0.11,21.44
		c1.37,9.82,8.81,15.72,16.37,21.06C773.87,578.8,777.56,582.2,778.64,589.81z M598.9,681.99c22.04,10.24,34.05,27.06,36.14,51.71
		c0.97,11.4,3.94,23.55,18.04,26.54c24.75,5.24,49.6,10.06,74.43,14.91c2.53,0.49,5.24,0.02,7.87-0.01
		c-1.04-2.84-1.42-6.21-3.21-8.43c-15.43-19.05-37.05-17.87-58.14-16.46c-11.69,0.78-16.74-2.12-16.97-14.67
		c-0.5-28.43-5.29-54.42-36.7-66.98c-15.16-6.07-15.54-21.24-12.47-35.16c3.06-13.88,7.72-27.4,11.5-41.12
		c0.56-2.04,0.15-4.35,0.19-6.53c-1.08,0.4-2.28,0.62-3.21,1.24C594.19,601.72,583.11,658.05,598.9,681.99z M557.73,701.41
		c-19.5-32.55-11.06-64.99,0.89-97.74c-5.82,6.17-10.45,12.52-14.53,19.2c-32.62,53.32-26.42,91.26,37.15,109.37
		c2.2,0.63,4.57,2.64,5.95-0.46c0.34-0.75-1.95-2.86-3.24-4.14C575.58,719.35,567.15,711.12,557.73,701.41z M646.99,501.53
		c42.67-9.54,85.11-7.04,130.58,4.86c-36.56-29.2-103.8-32.69-138.07-9.56c-1.92,1.29-5.39,2.88-3.19,4.91
		C638.01,503.32,642.15,502.24,646.99,501.53z M815.72,476.49c-1.61-16.07,0.89-30.84,12.94-42.84c1.54-1.53,2.22-3.94,3.3-5.94
		c-2.46-0.77-4.99-2.38-7.35-2.16c-12.66,1.2-24.78,4.8-30.59,17.2c-7.69,16.44-0.14,30.04,10.92,41.97
		c3.25,3.51,6.26,11.14,11.56,8.12C821.45,490.01,816.08,483.49,815.72,476.49z M1277.74,325.47c-31.33,10.56-61.04,0.43-90.97-7.1
		c-2.71-0.68-5.7-4.64-8-0.3c-0.48,0.9,2.64,4.57,4.76,5.86c33.29,20.16,68.21,24.26,104.77,9.93c6.56-2.57,17.1-7.14,15.15-12.16
		c-2.2-5.64-11.64,1.13-18,1.91C1283.49,323.85,1281.56,324.42,1277.74,325.47z M865.77,350.86c-6.12,1.52-12.45,2.47-18.32,4.67
		c-20.68,7.78-26.96,22.35-18.47,42.71c1.28,3.07,3.78,6.95,6.52,7.78c4.07,1.23,4.11-3.88,5.29-6.5
		c7.32-16.21,18.91-29.19,31.08-41.77c2.07-2.14,3.78-4.61,5.66-6.93C874.22,350.83,870.91,350.84,865.77,350.86z M681.56,568.69
		c2.04-8.05,4.02-16.12,6.16-24.15c0.74-2.79,1.82-6.12-2.82-4.75c-7.71,2.29-19.64,39.28-13.83,44.99
		c14.56,14.34,22.2,31.36,24.1,51.41c0.16,1.65,2.05,3.13,3.14,4.69c1.03-1.54,2.24-2.98,3.06-4.62
		c8.26-16.61,4.85-31.63-7.07-44.87C688.67,585.15,682.35,579.64,681.56,568.69z M787.5,719.73c27.09-3.31,45.16,10.32,59.34,31.47
		c1.4,2.09,3.87,3.45,5.85,5.15c0.51-1.61,1.67-3.33,1.44-4.82c-2.64-16.69-6.31-33.88-22.81-41.93
		c-16.5-8.05-33.74-3.18-48.85,5.45C775.72,718.9,782.35,719.54,787.5,719.73z M953.69,776.83c-19.3-27.07-43.91-32.65-69.07-15.59
		c-1.88,1.27-3.39,3.08-5.08,4.65c2.06,0.7,4.17,2.13,6.16,1.98c21.94-1.63,43.06-0.9,59.57,16.9c2.53,2.73,6.71,3.3,9.97,1.06
		C958.63,783.5,954.7,780.93,953.69,776.83z M757.33,700.35c1.8,2.31,1.23,6.69,5.6,6.65c0.63-0.01,1.52-1.52,1.83-2.49
		c9.05-27.9-15.26-55.3-44.83-50.45c-3.73,0.61-7.32,2.07-10.97,3.13c3.4,2.36,6.5,5.96,10.25,6.88
		C738.23,668.76,749.8,681.2,757.33,700.35z M897.13,322.11c16.78-10.98,33.59-21.92,50.32-32.99c2.01-1.33,3.99-4.71,0.2-5.01
		c-16.11-1.25-32.25,0.42-45.55,10.13C893.5,300.52,892.16,310.87,897.13,322.11z M742.05,402.77c1.28-0.39,2.52-0.94,3.64-1.67
		c7.26-4.71,13.01-9.18,10.05-13.28c-4.16-5.77-8.78,1.5-16.97,5.61c-3.43,1.72-7.56,2.15-11.33,3.34
		c-20.59,6.5-30.64,14.13-33.25,42.1c-0.28,3.01-1.04,6.2-1.52,9.32c-0.44,2.93-0.73,5.88-1.09,8.83c5.04,0.21,5.77-4.42,6.27-7.21
		C702.34,424.92,717.23,410.23,742.05,402.77z M872.73,287.73c10.31-17.01,25.03-24.51,45.08-22.02
		c10.74,1.33,21.44-0.34,31.48-4.65c1.79-0.77,2.99-2.91,4.46-4.42c-1.82-0.51-3.95-1.91-5.4-1.39
		c-14.31,5.16-28.47-0.47-42.65-0.68c-23.01-0.34-33.73,12.21-39.05,32.27c-0.56,2.1-2.51,4.8,0.99,5.7
		C868.67,292.81,870.4,290.36,872.73,287.73z M838.46,319.68c-6.39,0-12.77,0.01-19.16-0.01c-28.34-0.07-43.36,16.29-40.83,44.66
		c0.21,2.36-1.72,6.51,2.59,6.63c3.73,0.1,3.09-3.82,3.65-6.44c4.29-20.1,13.38-34.46,37-34.64c6.72-0.05,13.45-4.54,20.08-7.24
		c1.35-0.55,4.29-1.6,1.51-3.93C842.69,318.21,841.03,318.99,838.46,319.68z M958.19,383.66c1.66-2.53,3.32-5.05,4.98-7.58
		c-2.14,0.14-4.65-0.4-6.37,0.52c-25.19,13.61-34.52,55.36-17.65,78.76c0.99,1.38,2.95,2.06,4.47,3.07c0.33-1.48,1.33-3.19,0.9-4.39
		C935.24,428.51,945.28,406.63,958.19,383.66z M1687.03,347.23c-8.64-15.76-22.99-17.64-38.76-15.82c-3.03,0.35-7,0.15-7.55,4.31
		c-0.51,3.83,2.69,5.65,5.72,6.66c12.66,4.2,25.31,8.48,38.14,12.09C1690.24,356.07,1688.93,351.99,1687.03,347.23z M858.43,415.9
		c-6.52,10.76-6.2,21.91-1.59,33.16c0.78,1.91,2.72,3.35,4.13,5c0.57-2.1,1.63-4.19,1.64-6.29c0.03-12.33,2.94-23.42,12.16-32.32
		c3.27-3.15,6.02-6.84,9.01-10.29c-5.22,0.93-10.64,1.3-15.6,2.99C864.96,409.25,862.41,412.27,858.43,415.9z M838.12,514.02
		c-5.03,15.03-2.14,28,10.34,38.19c1.95,1.59,4.87,2,7.34,2.96c-0.49-2.48-0.4-5.3-1.58-7.39c-5.87-10.33-8.35-21.27-7-33.09
		c0.42-3.68,4.65-8.95,0.33-10.58C843.43,502.54,841.07,508.58,838.12,514.02z M880.19,481.44c-11.6,14.16-10.43,27.27,3.39,39.15
		c1.51,1.3,3.91,1.56,5.9,2.3c-0.28-2.17-0.08-4.55-0.93-6.47c-4.85-10.91-5.7-21.9-1.7-33.26c0.52-1.49-0.18-3.41-0.31-5.12
		C884.87,478.85,883.2,479.67,880.19,481.44z M902.08,389.71c4.9-11.45,7.95-24.16,21.11-29.88c1.23-0.53,1.56-3.13,2.3-4.77
		c-1.84-0.5-3.65-1.29-5.52-1.46C903.73,352.1,894.95,368.12,902.08,389.71z M912.15,459.61c-3.74-8.71-4.73-17.32,0.09-26.09
		c0.98-1.78,0.61-4.3,0.86-6.48c-1.39-0.02-3.57-0.61-4.05,0.04c-4.14,5.62-10.52,10.18-10.45,18.04
		c0.08,8.45,5.21,15.16,10.6,20.49C913,469.38,914.08,465.07,912.15,459.61z M968.43,316.38c2.74-3.17,11.04,0.34,9.45-6.97
		c-0.42-1.91-7.21-4.16-10.38-3.4c-10.2,2.47-15.07,10.86-18.17,20.15c-0.63,1.89,0.54,6.33,1.01,6.35
		c6.29,0.25,5.21-6.98,9.11-9.49C962.09,321.31,964.47,319.2,968.43,316.38z"/>
	<path class="st1" d="M1730.16,825.2c-67.75,30.49-138.25,48.46-209.68,64.2c-109.14,24.05-219.91,35.89-330.9,44.25
		c-114.81,8.65-229.97,7.91-345.09,1.79c-72.52-3.86-144.75-10.67-216.55-20.59c-108.06-14.93-215.14-35.49-319.51-68.22
		c-1.09-0.34-2.03-1.18-8.84-5.26c32.51,4.04,59.19,5.38,85.25,10.58c4.4,0.88,8.07,0.87,10.72,0.37c2.13-0.4-5.56-3.56-8.84-4.55
		c-70.49-21.45-141.85-40.68-205.47-79.72c-16.63-10.21-33.29-21.16-44.32-37.65c-23.36-34.94-13.63-67.25,26.74-94.57
		c47.88-32.41,101.86-49.14,157.23-62.61c33.51-8.15,67.23-15.03,101.54-18.9c-54.07,12.64-107.8,26.73-157.82,51.22
		c-34.22,16.75-69.45,34.55-80.97,75.51c-7.32,26.02,9.95,57.1,37.53,76.74c48.9,34.82,104.26,54.75,160.82,72.37
		c92.8,28.91,188.31,45.09,284.55,54.23c101.29,9.62,202.89,14.28,305.08,6.97c81.45-5.83,162.64-12.7,243.15-25.64
		c40.94-6.58,82.13-13.41,121.74-26.7c4.68-1.57,9.42-3.75,14.5-1.25c-2.59,4.8-4.14,10.76-7.95,14.21
		c-23.26,21.06-52.24,31.33-81.08,41.75c-2.8,1.01-5.31,2.82-7.96,4.25c2.86,0.68,5.72,1.96,8.58,1.96
		c68.7,0.04,136.58-8.28,204.47-18.27c49.47-7.28,98.53-16.28,147.29-27.06c47.08-10.41,93.13-24.4,138.61-41.35
		C1745.64,817.11,1738.3,820.95,1730.16,825.2z"/>
	<path class="st1" d="M416.2,815.44c-51.09-16.89-101.07-34.31-142.91-67.97c-45.52-36.62-42.05-79.44,7.9-110.27
		c58.29-35.98,123.58-50.38,189.93-61.44c5.43-0.91,10.84-1.98,16.44-2.24c-32.16,9.78-64.49,18.85-95.58,31.69
		c-24.7,10.2-48.27,22.43-69.03,39.53c-35.27,29.05-30.08,70.72,12.76,100.87c41,28.85,86.7,47.61,134.08,63.11
		c100.31,32.81,203.79,49.95,307.9,64.37C655.4,867.31,534.58,852.12,416.2,815.44z"/>
	<path class="st1" d="M1419.33,631.17c25.93,8.21,50.39,17.21,71.47,33.63c25.28,19.69,25.23,46.71-0.24,67.07
		c-18.27,14.6-39.18,24.41-60.91,32.12c-86.26,30.62-175.77,45.07-266.61,53.15c-65.28,5.8-130.61,9.61-196.16,9.15
		c-5.05-0.04-10.1-0.69-15.07-2.14c49.48-3.57,99.02-6.4,148.41-10.89c62.46-5.68,124.63-14.3,185.65-28.93
		c51.25-12.29,103.14-24.08,147.87-54.12c38.54-25.88,36.63-58.66-3.81-82.62c-19.86-11.77-40.71-21.46-61.6-31.73
		C1385.07,620.79,1401.79,625.72,1419.33,631.17z"/>
	<path class="st1" d="M572.28,803.12c-63.02-13.7-125.52-26.87-178.3-64.62c-48.17-34.46-44.07-74.18,8.55-102.19
		c24.15-12.86,49.32-23.1,77.48-29.62c-14.74,9.13-28.98,16.46-41.54,26c-45.09,34.25-43,71.84,5.15,102.18
		c51.43,32.41,108.69,49.77,167.07,63.98c25.71,6.26,51.63,11.68,81.71,18.44C649.31,816.5,611.38,809.15,572.28,803.12z"/>
	<path class="st1" d="M987.93,867.22c-49.07-1.13-96.93-2.38-144.66-7.01c-47.45-4.6-94.53-11.37-141.2-22.23
		c195.88,8.39,391.7,18.78,588.19-11.08C1264.74,846.05,1102.07,867.37,987.93,867.22z"/>
	<path class="st1" d="M1455.33,611.56c22.4,1.45,44.16,8.32,65.69,15.09c30.57,9.61,61.09,19.67,87.82,38.63
		c32.69,23.19,33.62,52.55,1.95,77.7c-23.5,18.66-50.99,29.63-78.68,39.26c-50.32,17.51-102.7,26.81-155.31,34.57
		c-3.42,0.5-6.98,0.07-16.68,0.07c51.08-11.49,96.27-21.57,138.88-40.03c21.8-9.44,43.49-19.34,61.06-36.16
		c31.61-30.27,29.51-60.94-6.56-85.97C1523.77,634.08,1490.22,621.85,1455.33,611.56z"/>
	<g>
		<g>
			<path class="st0" d="M1268.95,227.39c-17.87-8.82-36.22-9.6-53.89-0.82c-13.94,6.92-20.43,19.31-19.46,35.38
				c1.51,25.04,34.44,46.1,63.81,39.89c16.58-3.91,29.69-12.22,32.95-28.35C1296.48,253.09,1288.31,236.94,1268.95,227.39z
				 M1249.91,281.82c-0.96,1.5-2.6,5.02-3.15,4.3c-7.8-10.2-13.38-23.16-11.8-35.6c0.94-7.42,5.82-20.51,8.52-20.51
				C1255.11,241.6,1257.24,270.43,1249.91,281.82z"/>
		</g>
	</g>
	<path class="st1" d="M1306.34,632.98c15.82,7.04,27.04,18.47,30.91,35.67c2.17,9.67-3.14,19.16-9.51,26.75
		c-6.37,7.59-15.06,13.31-23.7,18.16c-14.86,8.35-26.76,15.46-42.6,21.74c-56.58,22.44-114.89,42.44-173.99,57.03
		c14.37-1.93,28.07-2.91,42.1-4.8c30.68-4.13,62.46-10.29,93.28-18.24c39.3-10.14,79.53-19.84,113.94-41.36
		c14.72-9.21,24.27-14.56,31.92-30.15c1.3-2.65,4.04-6.05,4.71-16.9c0.36-5.94-0.95-10.25-5.1-15.13
		C1352.22,646.83,1328.07,635.82,1306.34,632.98z"/>
</g>
</svg>
